- 
http://www.Speed.Cd 
       
http://www.Speed.Cd      fast  and The Hottest Private Tracker on the net

(((--Submit for invite!!--)))

Please Seed back to make the speed Faster!!!

------------------nfo--------------------------
-[img]http://img813.imageshack.us/img813/5754/treeoflifebluraycoverar.jpg[/img]
[pre]
     _______.     ___      .___  ___.  __    __  .______          ___       __  
    /       |    /   \     |   \/   | |  |  |  | |   _  \        /   \     |  | 
   |   (----`   /  ^  \    |  \  /  | |  |  |  | |  |_)  |      /  ^  \    |  | 
    \   \      /  /_\  \   |  |\/|  | |  |  |  | |      /      /  /_\  \   |  | 
.----)   |    /  _____  \  |  |  |  | |  `--'  | |  |\  \----./  _____  \  |  | 
|_______/    /__/     \__\ |__|  |__|  \______/  | _| `._____/__/     \__\ |__| 
                                                                                

THe.Tree.of.Life.2011.BRRiP.AC-3.XViD-SAMURAi

ANOTHER QUALiTY SAMURAi RELEASE!!!

Encoder........: SAMURAi
Video Codec....: XViD
Audio Codec....: Mp3
Audio Bitrate..: 128 kb/s
Subtitles......: N/a
Resolution.....: 720 x 384
Runtime........: 139 min
Language.......: English
IMDB Link......: http://www.imdb.com/title/tt0478304/
Genre..........: Drama
Ratings........: 7.8/10 from 18,569 users
Stars..........: Brad Pitt, Sean Penn and Jessica Chastain 
Plot...........: The story centers around a family with three boys in the 1950s. 
The eldest son witnesses the loss of innocence. 




Video Source: The.Tree.of.Life.2011.720p.BluRay.x264.DTS-WiKi
Audio Source: The.Tree.of.Life.2011.720p.BluRay.x264.DTS-WiKi
 
Format                           : AVI
Format/Info                      : Audio Video Interleave
File size                        : 1.43 GiB
Duration                         : 2h 18mn
Overall bit rate                 : 1 473 Kbps
Writing application              : Nandub v1.0rc2
Writing library                  : Nandub build 1852/release

Video
ID                               : 0
Format                           : MPEG-4 Visual
Format profile                   : Advanced Simple@L5
Format settings, BVOP            : 2
Format settings, QPel            : No
Format settings, GMC             : No warppoints
Format settings, Matrix          : Default (H.263)
Muxing mode                      : Packed bitstream
Codec ID                         : XVID
Codec ID/Hint                    : XviD
Duration                         : 2h 18mn
Bit rate                         : 1 016 Kbps
Width                            : 720 pixels
Height                           : 384 pixels
Display aspect ratio             : 1.875
Frame rate                       : 23.976 fps
Color space                      : YUV
Chroma subsampling               : 4:2:0
Bit depth                        : 8 bits
Scan type                        : Progressive
Compression mode                 : Lossy
Bits/(Pixel*Frame)               : 0.153
Stream size                      : 1 009 MiB (69%)
Writing library                  : XviD 64

Audio
ID                               : 1
Format                           : AC-3
Format/Info                      : Audio Coding 3
Mode extension                   : CM (complete main)
Codec ID                         : 2000
Duration                         : 2h 18mn
Bit rate mode                    : Constant
Bit rate                         : 448 Kbps
Channel(s)                       : 6 channels
Channel positions                : Front: L C R, Side: L R, LFE
Sampling rate                    : 48.0 KHz
Bit depth                        : 16 bits
Compression mode                 : Lossy
Stream size                      : 445 MiB (30%)
Alignment                        : Split accross interleaves
Interleave, duration             : 42 ms (1.00 video frame)
Interleave, preload duration     : 500 ms



Release Notes:
Alright here is my encode of "The Tree of Life" May not be as great as some 
of the other encodes out there but im sure people will grab it! Alright im 
a little tardy to the party on this release but i got caught up doing other
encodes...usual filters added enjoy!


Screenshots:
[img]http://img809.imageshack.us/img809/1129/vlcsnap2011092016h04m11.png[/img]
[img]http://img571.imageshack.us/img571/4035/vlcsnap2011092016h04m23.png[/img]
[img]http://img29.imageshack.us/img29/5888/vlcsnap2011092016h06m08.png[/img]
[img]http://img685.imageshack.us/img685/696/vlcsnap2011092016h06m32.png[/img]
[img]http://img204.imageshack.us/img204/8980/vlcsnap2011092016h07m37.png[/img]
[img]http://img829.imageshack.us/img829/5575/vlcsnap2011092016h09m06.png[/img]



Greetz:
ViSiON, SiC, SANTi, IMAGiNE, MEM, LKRG, DTRG, FLAWL3SS, WBZ, NPW,
CM8, UnKnown, ETRG, SaM, Blackjesus, NOiR, EP1C, EMBER...and other p2p
groups past and present good job!

[/pre]